<svg width="123" height="77" viewBox="0 0 101 40" fill="none" xmlns="http://www.w3.org/2000/svg">
  <path
    d="M42.6292 29.7039C42.6292 29.8877 42.5615 30.0432 42.426 30.1706C42.3057 30.2837 42.1423 30.3414 41.977 30.3414H35.4357C35.2946 30.3414 35.0894 30.2672 34.9866 30.1706C34.8511 30.0432 34.7835 29.8877 34.7835 29.7039V21.4472C34.7835 21.3062 34.8577 21.101 34.9544 20.9982C35.0821 20.863 35.2377 20.7954 35.4218 20.7954H41.9761C42.1174 20.7954 42.3229 20.8693 42.4258 20.966C42.5614 21.0934 42.6292 21.2491 42.6292 21.4329V29.7039ZM45.3931 19.1551C45.1075 18.6733 44.7182 18.295 44.2252 18.0203C43.7321 17.7457 43.1794 17.6082 42.567 17.6082H33.8001C32.5802 17.6082 31.5913 18.5956 31.5913 19.8136V39.9028H34.7835V33.5273V31.8007C34.7838 31.7859 34.7856 31.7714 34.7856 31.7565V31.7256C34.7856 31.242 35.1588 30.8186 35.6429 30.8061C36.1398 30.7934 36.5465 31.1918 36.5464 31.6849V31.7697C36.5464 32.7404 37.3345 33.5273 38.3067 33.5273L42.567 33.5286C42.6803 33.5286 42.7907 33.5223 42.8998 33.5129H43.9115C44.9649 33.5129 45.8187 32.6604 45.8187 31.6087C45.8187 31.5963 45.82 31.5844 45.8204 31.5722V29.0325C45.8203 29.0281 45.8198 29.024 45.8198 29.0197L45.8204 25.5605V25.3682L45.8214 20.7954C45.8214 20.184 45.6786 19.6372 45.3931 19.1551Z"
    fill="black" />
  <path
    d="M50.3362 21.4328C50.3362 21.2566 50.4009 21.1063 50.5308 20.982C50.6605 20.8576 50.8085 20.7953 50.9746 20.7953H57.5008C57.6876 20.7953 57.8407 20.8576 57.9601 20.982C58.0793 21.1063 58.1391 21.2566 58.1391 21.4328V23.3452C58.1391 23.5214 58.0793 23.6715 57.9601 23.796C57.8407 23.9204 57.6876 23.9826 57.5008 23.9826H50.9746C50.8085 23.9826 50.6605 23.9179 50.5308 23.7883C50.4009 23.6588 50.3362 23.511 50.3362 23.3452V21.4328ZM68.4943 30.1707C68.3589 30.0431 68.2911 29.8879 68.2911 29.7039V21.4328C68.2911 21.2491 68.359 21.0932 68.4946 20.9659C68.5976 20.8693 68.803 20.7954 68.9442 20.7954H73.9592V17.6082H72.6711H71.8226C70.843 17.6082 70.049 18.401 70.049 19.379V19.41C70.049 19.8934 69.6758 20.317 69.1918 20.3295C68.6949 20.3422 68.2881 19.9437 68.2882 19.4506V19.3658C68.2882 18.3951 67.5001 17.6082 66.5279 17.6082H66.0177H65.8736H65.0785H62.6955V20.7953H64.4451C64.5866 20.7953 64.7924 20.8693 64.8954 20.9659C65.0311 21.0932 65.0989 21.2491 65.0989 21.4328V29.6899C65.0989 29.8308 65.0249 30.0357 64.9281 30.1384C64.8005 30.2737 64.6444 30.3414 64.4604 30.3414H64.4111H64.3763H63.8531C62.9036 30.3756 62.1439 31.1527 62.1439 32.109V32.1399C62.1439 32.6234 61.7707 33.0469 61.2867 33.0593C60.7898 33.0721 60.383 32.6736 60.3831 32.1806V32.0957C60.3831 31.1467 59.6294 30.3754 58.6872 30.3414H57.318H55.0499H50.9746C50.8085 30.3414 50.6605 30.2791 50.5308 30.1548C50.4009 30.0304 50.3362 29.8803 50.3362 29.7039V27.7917C50.3362 27.626 50.4009 27.4782 50.5308 27.3485C50.6605 27.2191 50.8085 27.1542 50.9746 27.1542H61.3313V20.8576C61.3313 20.2358 61.1936 19.6786 60.9187 19.1863C60.6436 18.6941 60.2594 18.3078 59.7664 18.0279C59.2732 17.7481 58.71 17.6082 58.0769 17.6082H50.3984C49.7858 17.6082 49.233 17.7481 48.7401 18.0279C48.2469 18.3078 47.8576 18.6941 47.5722 19.1863C47.2866 19.6786 47.144 20.2358 47.144 20.8576L47.1456 28.9818C47.1456 28.9873 47.1451 28.9925 47.145 28.998V31.5671C47.145 31.5684 47.1451 31.5695 47.1451 31.5708V31.6086C47.1451 32.6604 47.9991 33.513 49.0525 33.513H50.0707C50.1782 33.5222 50.287 33.5285 50.3984 33.5285H63.2914H64.4111H70.8586V30.3414H68.9425C68.7776 30.3414 68.6143 30.2837 68.4943 30.1707Z"
    fill="black" />
  <path
    d="M27.0834 12.4636C27.0834 12.6246 27.0315 12.7637 26.9276 12.8815C26.7982 13.0281 26.6039 13.1011 26.408 13.1011H19.9056C19.7097 13.1011 19.5155 13.0281 19.386 12.8814C19.2822 12.7636 19.2304 12.6246 19.2304 12.4636V10.5883C19.2304 10.3928 19.3033 10.1988 19.4501 10.0695C19.568 9.96567 19.7073 9.91382 19.8687 9.91382H26.408C26.6036 9.91382 26.7977 9.98652 26.9271 10.1328C27.0314 10.2507 27.0834 10.3902 27.0834 10.5513V12.4636ZM35.4384 3.55515H40.4729V3.55504H45.8173V0.367898H45.8172H45.67C44.6904 0.367898 43.8963 1.16072 43.8963 2.13873V2.16962C43.8963 2.65315 43.5232 3.07674 43.0391 3.08917C42.5422 3.10193 42.1355 2.70341 42.1356 2.2103V2.12551C42.1356 1.1548 41.3475 0.367898 40.3752 0.367898H40.0296H39.721H39.3752H38.5943H34.8623C34.2395 0.367898 33.6813 0.507727 33.1883 0.787615C32.6951 1.06739 32.3085 1.45383 32.0283 1.94591C31.748 2.43834 31.6078 2.99538 31.6078 3.61726V6.67995C31.6078 7.29169 31.748 7.84361 32.0283 8.3358C32.3085 8.82823 32.6952 9.21421 33.1883 9.49398C33.6813 9.77387 34.2395 9.91382 34.8623 9.91382H41.9497C42.1452 9.91382 42.3393 9.98652 42.4688 10.1328C42.573 10.2507 42.6252 10.3902 42.6252 10.5513V12.427C42.6252 12.6223 42.5522 12.8161 42.4056 12.9452C42.2875 13.049 42.1479 13.1011 41.9867 13.1011H36.852H36.1114C35.1319 13.1011 34.3378 13.8939 34.3378 14.8719V14.9028C34.3378 15.3863 33.9647 15.8098 33.4805 15.8222C32.9836 15.835 32.577 15.4365 32.5771 14.9435V14.8587C32.5771 13.888 31.7889 13.1011 30.8167 13.1011H30.8572C30.8565 13.1008 30.8555 13.1005 30.8548 13.1004V13.0983C30.6066 13.0777 30.4133 12.9261 30.2757 12.6419V3.61726C30.2756 2.99538 30.1355 2.43834 29.8552 1.94591C29.5749 1.45383 29.188 1.06739 28.6952 0.787615C28.2019 0.507727 27.6441 0.367898 27.0212 0.367898H16.0388V3.55515L21.3826 3.55504H26.408C26.6037 3.55504 26.7977 3.62774 26.9271 3.77407C27.0314 3.8919 27.0834 4.03139 27.0834 4.19253V6.06821C27.0834 6.26343 27.0106 6.45716 26.8639 6.58628C26.746 6.69021 26.6063 6.74217 26.445 6.74217H19.2926C18.6698 6.74217 18.1116 6.88212 17.6187 7.16189C17.1255 7.44189 16.7389 7.82811 16.4586 8.3203C16.1782 8.81261 16.0381 9.36464 16.0381 9.97592V13.0387C16.0381 13.6607 16.1782 14.218 16.4586 14.7101C16.7389 15.2026 17.1255 15.5885 17.6187 15.8684C18.1116 16.1483 18.6698 16.2882 19.2926 16.2882H23.4096H23.566C24.5455 16.2882 25.3396 15.4953 25.3396 14.5173V14.4864C25.3396 14.003 25.7127 13.5794 26.1968 13.5669C26.6936 13.5542 27.1004 13.9527 27.1003 14.4458V14.5306C27.1003 15.5012 27.8884 16.2882 28.8607 16.2882H29.3413H29.5149H30.1232H32.7653H33.499H42.563C43.1857 16.2882 43.7436 16.1483 44.2368 15.8684C44.7298 15.5885 45.1166 15.2026 45.3969 14.7101C45.6771 14.218 45.8173 13.6607 45.8173 13.0388V9.97592C45.8173 9.36464 45.6771 8.81261 45.3969 8.3203C45.1166 7.82811 44.7298 7.44189 44.2368 7.16189C43.7436 6.88212 43.1857 6.74217 42.5628 6.74217H35.4752C35.2795 6.74217 35.0852 6.66935 34.9558 6.52269C34.8519 6.40497 34.8001 6.26582 34.8001 6.10479V4.22968C34.8 4.03413 34.873 3.84005 35.0198 3.71071C35.1377 3.60689 35.2771 3.55515 35.4384 3.55515Z"
    fill="black" />
  <path
    d="M3.69215 12.4636V4.22957C3.69215 4.03413 3.76509 3.84005 3.91187 3.71071C4.02978 3.60689 4.16926 3.55504 4.33054 3.55504H9.37027H14.7146L14.7148 0.367898H14.5674C13.5879 0.367898 12.7938 1.16072 12.7938 2.13873V2.16962C12.7938 2.65315 12.4207 3.07674 11.9366 3.08917C11.4397 3.10193 11.0329 2.70341 11.0331 2.2103V2.12551C11.0331 1.1548 10.2449 0.367898 9.27268 0.367898H8.61843H7.82139H3.75447C3.13161 0.367898 2.57347 0.507727 2.0805 0.787615C1.5873 1.06739 1.2007 1.45383 0.920377 1.94591C0.640164 2.43834 0.5 2.99538 0.5 3.61714V13.0387C0.5 13.6607 0.640164 14.218 0.920377 14.7101C1.2007 15.2026 1.5873 15.5885 2.0805 15.8684C2.57347 16.1483 3.13161 16.2882 3.75447 16.2882H14.7148V13.1011H4.36729C4.17154 13.1011 3.97739 13.0281 3.84795 12.8814C3.74408 12.7636 3.69215 12.6246 3.69215 12.4636Z"
    fill="black" />
  <path
    d="M47.5244 8.17401H52.9445V7.34324H48.553V4.43553H51.7195V3.60476H48.553V0.939358H52.9445V0.0970459H47.5244V8.17401Z"
    fill="black" />
  <path
    d="M55.8829 8.31247C56.6071 8.31247 57.2119 8.08555 57.6973 7.6317C58.1903 7.17016 58.4793 6.52016 58.564 5.68169H57.6164C57.547 6.28169 57.3544 6.74324 57.0385 7.06631C56.7304 7.38939 56.349 7.55093 55.8944 7.55093C55.3628 7.55093 54.9314 7.34324 54.6001 6.92785C54.2765 6.50477 54.1147 5.89708 54.1147 5.10477C54.1147 4.32784 54.2803 3.72783 54.6116 3.30476C54.9429 2.88168 55.3705 2.67014 55.8944 2.67014C56.3336 2.67014 56.7111 2.82398 57.027 3.13168C57.3429 3.43937 57.5393 3.88937 57.6164 4.48168H58.564C58.4639 3.6586 58.1711 3.02398 57.6857 2.57783C57.2003 2.13167 56.5994 1.90859 55.8829 1.90859C55.0739 1.90859 54.4113 2.19321 53.8951 2.76244C53.3866 3.32399 53.1324 4.10861 53.1324 5.1163C53.1324 6.124 53.3866 6.90862 53.8951 7.47016C54.4036 8.0317 55.0662 8.31247 55.8829 8.31247Z"
    fill="black" />
  <path
    d="M61.9133 8.31247C62.1521 8.31247 62.3755 8.2894 62.5836 8.24324C62.7993 8.19709 62.9996 8.12786 63.1845 8.03555C63.3771 7.94324 63.5505 7.8317 63.7046 7.70093C63.8664 7.56247 64.0089 7.40478 64.1322 7.22785C64.2631 7.05093 64.371 6.85477 64.4557 6.63939C64.5405 6.424 64.606 6.18939 64.6522 5.93554C64.6984 5.68169 64.7216 5.40861 64.7216 5.1163C64.7216 4.82399 64.6984 4.55092 64.6522 4.29707C64.606 4.04322 64.5405 3.8086 64.4557 3.59322C64.371 3.37014 64.2631 3.17014 64.1322 2.99322C64.0089 2.81629 63.8664 2.66244 63.7046 2.53167C63.5505 2.39321 63.3771 2.27783 63.1845 2.18552C62.9996 2.09321 62.7993 2.02398 62.5836 1.97783C62.3755 1.93167 62.1521 1.90859 61.9133 1.90859C61.6821 1.90859 61.4587 1.93167 61.243 1.97783C61.0273 2.02398 60.827 2.09321 60.642 2.18552C60.4571 2.27783 60.2838 2.39321 60.122 2.53167C59.9679 2.66244 59.8254 2.81629 59.6944 2.99322C59.5711 3.17014 59.4671 3.37014 59.3824 3.59322C59.2976 3.8086 59.2321 4.04322 59.1859 4.29707C59.1397 4.55092 59.1166 4.82399 59.1166 5.1163C59.1166 6.124 59.3747 6.90862 59.8909 7.47016C60.4148 8.0317 61.0889 8.31247 61.9133 8.31247ZM61.9133 7.55093C61.3817 7.55093 60.9464 7.34324 60.6074 6.92785C60.2684 6.50477 60.0989 5.89708 60.0989 5.10477C60.0989 4.32015 60.2684 3.72014 60.6074 3.30476C60.9464 2.88168 61.3817 2.67014 61.9133 2.67014C62.4449 2.67014 62.8802 2.88168 63.2192 3.30476C63.5582 3.72014 63.7277 4.32399 63.7277 5.1163C63.7277 5.90092 63.5582 6.50477 63.2192 6.92785C62.8802 7.34324 62.4449 7.55093 61.9133 7.55093Z"
    fill="black" />
  <path
    d="M67.9283 8.30094C68.6449 8.30094 69.2111 8.12786 69.6272 7.7817C70.0509 7.42785 70.2628 6.99708 70.2628 6.48939C70.2628 6.35862 70.2474 6.23939 70.2166 6.13169C70.1935 6.024 70.1588 5.924 70.1126 5.83169C70.0663 5.73938 70.0085 5.65477 69.9392 5.57784C69.8699 5.50092 69.7928 5.43169 69.7081 5.37015C69.6233 5.30092 69.5309 5.24323 69.4307 5.19707C69.3383 5.14323 69.2381 5.09323 69.1302 5.04707C69.0301 5.00092 68.9222 4.95861 68.8067 4.92015C68.6911 4.88169 68.5755 4.84707 68.46 4.8163C68.3444 4.77784 68.2288 4.74322 68.1133 4.71246C67.9977 4.68169 67.8821 4.65092 67.7666 4.62015C67.3659 4.51245 67.0154 4.38553 66.7149 4.23938C66.4221 4.08553 66.2757 3.85476 66.2757 3.54706C66.2757 3.27783 66.3913 3.06245 66.6224 2.90091C66.8536 2.73168 67.1772 2.64706 67.5932 2.64706C68.0478 2.64706 68.4214 2.76244 68.7142 2.99322C69.0147 3.21629 69.2111 3.5663 69.3036 4.04322H70.2281C70.1203 3.3586 69.8313 2.83552 69.3614 2.47398C68.8991 2.10475 68.3059 1.92013 67.5816 1.92013C66.8882 1.92013 66.3374 2.08552 65.929 2.41629C65.5207 2.73937 65.3165 3.13937 65.3165 3.6163C65.3165 3.74707 65.3281 3.8663 65.3512 3.97399C65.3743 4.08168 65.409 4.18553 65.4552 4.28553C65.5014 4.37784 65.5554 4.46245 65.617 4.53938C65.6786 4.6163 65.748 4.68938 65.825 4.75861C65.9021 4.82015 65.9868 4.87784 66.0793 4.93169C66.1717 4.98553 66.2642 5.03553 66.3566 5.08169C66.4568 5.12015 66.5608 5.15861 66.6687 5.19707C66.7765 5.23553 66.8844 5.274 66.9923 5.31246C67.1078 5.34323 67.2195 5.374 67.3274 5.40477C67.443 5.42784 67.5547 5.45477 67.6625 5.48554C68.1017 5.59323 68.4869 5.72015 68.8182 5.86631C69.1495 6.01246 69.3151 6.25477 69.3151 6.59323C69.3151 6.89324 69.1919 7.13555 68.9453 7.32016C68.6988 7.49709 68.3559 7.58555 67.9168 7.58555C67.4314 7.58555 67.0385 7.45862 66.738 7.20478C66.4375 6.95093 66.2411 6.56247 66.1486 6.03939H65.2241C65.3242 6.80093 65.6132 7.37016 66.0908 7.74709C66.5762 8.11632 67.1887 8.30094 67.9283 8.30094Z"
    fill="black" />
  <path
    d="M71.0399 10.2856H71.872C72.2418 10.2856 72.5461 10.2125 72.7849 10.0663C73.0315 9.92787 73.228 9.66248 73.3743 9.27017L76.0555 2.04706H75.0501L73.2703 6.98554L71.3519 2.04706H70.2887L72.7849 8.33555L72.6463 8.76248C72.5461 9.06248 72.419 9.26248 72.2649 9.36248C72.1185 9.47017 71.9336 9.52402 71.7102 9.52402H71.0399V10.2856Z"
    fill="black" />
  <path
    d="M78.8246 8.30094C79.5411 8.30094 80.1074 8.12786 80.5234 7.7817C80.9471 7.42785 81.159 6.99708 81.159 6.48939C81.159 6.35862 81.1436 6.23939 81.1128 6.13169C81.0897 6.024 81.055 5.924 81.0088 5.83169C80.9626 5.73938 80.9048 5.65477 80.8354 5.57784C80.7661 5.50092 80.689 5.43169 80.6043 5.37015C80.5195 5.30092 80.4271 5.24323 80.3269 5.19707C80.2345 5.14323 80.1343 5.09323 80.0265 5.04707C79.9263 5.00092 79.8184 4.95861 79.7029 4.92015C79.5873 4.88169 79.4717 4.84707 79.3562 4.8163C79.2406 4.77784 79.125 4.74322 79.0095 4.71246C78.8939 4.68169 78.7783 4.65092 78.6628 4.62015C78.2621 4.51245 77.9116 4.38553 77.6111 4.23938C77.3183 4.08553 77.172 3.85476 77.172 3.54706C77.172 3.27783 77.2875 3.06245 77.5187 2.90091C77.7498 2.73168 78.0734 2.64706 78.4894 2.64706C78.944 2.64706 79.3177 2.76244 79.6104 2.99322C79.9109 3.21629 80.1074 3.5663 80.1998 4.04322H81.1243C81.0165 3.3586 80.7276 2.83552 80.2576 2.47398C79.7953 2.10475 79.2021 1.92013 78.4779 1.92013C77.7845 1.92013 77.2336 2.08552 76.8253 2.41629C76.4169 2.73937 76.2128 3.13937 76.2128 3.6163C76.2128 3.74707 76.2243 3.8663 76.2474 3.97399C76.2705 4.08168 76.3052 4.18553 76.3514 4.28553C76.3977 4.37784 76.4516 4.46245 76.5132 4.53938C76.5749 4.6163 76.6442 4.68938 76.7213 4.75861C76.7983 4.82015 76.883 4.87784 76.9755 4.93169C77.068 4.98553 77.1604 5.03553 77.2529 5.08169C77.353 5.12015 77.457 5.15861 77.5649 5.19707C77.6728 5.23553 77.7806 5.274 77.8885 5.31246C78.004 5.34323 78.1158 5.374 78.2236 5.40477C78.3392 5.42784 78.4509 5.45477 78.5588 5.48554C78.9979 5.59323 79.3831 5.72015 79.7144 5.86631C80.0457 6.01246 80.2114 6.25477 80.2114 6.59323C80.2114 6.89324 80.0881 7.13555 79.8416 7.32016C79.595 7.49709 79.2522 7.58555 78.813 7.58555C78.3276 7.58555 77.9347 7.45862 77.6342 7.20478C77.3338 6.95093 77.1373 6.56247 77.0448 6.03939H76.1203C76.2205 6.80093 76.5094 7.37016 76.9871 7.74709C77.4724 8.11632 78.0849 8.30094 78.8246 8.30094Z"
    fill="black" />
  <path
    d="M83.95 8.17401H85.487V7.41247H84.3775C84.1233 7.41247 83.9422 7.36632 83.8344 7.27401C83.7265 7.17401 83.6726 7.01247 83.6726 6.78939V2.8086H85.487V2.04706H83.6726V0.823973H82.6903V2.04706H81.2572V2.8086H82.6903V6.97401C82.6903 7.36632 82.7904 7.66632 82.9907 7.87401C83.1988 8.07401 83.5185 8.17401 83.95 8.17401Z"
    fill="black" />
  <path
    d="M88.4022 8.31247C89.0957 8.31247 89.6735 8.10863 90.1358 7.70093C90.598 7.28555 90.8985 6.70477 91.0372 5.95862H90.0895C89.974 6.474 89.7659 6.87016 89.4655 7.14708C89.1727 7.42401 88.8183 7.56247 88.4022 7.56247C87.8783 7.56247 87.4508 7.35862 87.1195 6.95093C86.7959 6.54323 86.6302 5.95862 86.6225 5.19707H91.1181V5.04707C91.1181 4.80092 91.0988 4.5663 91.0603 4.34322C91.0295 4.12014 90.9794 3.91245 90.91 3.72014C90.8484 3.52014 90.7675 3.33937 90.6674 3.17783C90.5749 3.01629 90.467 2.87014 90.3438 2.73937C90.2282 2.60091 90.0972 2.48167 89.9508 2.38167C89.8045 2.27398 89.6504 2.18552 89.4886 2.11629C89.3268 2.04706 89.1534 1.99706 88.9685 1.96629C88.7913 1.92782 88.6064 1.90859 88.4138 1.90859C87.6048 1.90859 86.9423 2.19706 86.4261 2.77398C85.9099 3.35091 85.6518 4.13168 85.6518 5.1163C85.6518 6.124 85.906 6.90862 86.4145 7.47016C86.9307 8.0317 87.5933 8.31247 88.4022 8.31247ZM88.4022 2.6586C88.8491 2.6586 89.2266 2.81629 89.5348 3.13168C89.843 3.44706 90.0394 3.90476 90.1242 4.50476H86.6687C86.7458 3.92014 86.9423 3.46629 87.2581 3.14322C87.574 2.82014 87.9554 2.6586 88.4022 2.6586Z"
    fill="black" />
  <path
    d="M91.7631 8.17401H92.7569V3.54706C92.911 3.29322 93.1191 3.08937 93.381 2.93552C93.643 2.77398 93.9396 2.69321 94.2709 2.69321C94.6792 2.69321 95.0066 2.82014 95.2532 3.07398C95.5074 3.32783 95.6346 3.68168 95.6346 4.13553V8.17401H96.6284V4.00861C96.6284 3.9163 96.6207 3.82399 96.6053 3.73168C96.5976 3.63937 96.5861 3.55476 96.5706 3.47783C96.7401 3.23937 96.952 3.05091 97.2063 2.91245C97.4605 2.76629 97.7533 2.69321 98.0846 2.69321C98.5083 2.69321 98.8512 2.82014 99.1131 3.07398C99.3751 3.32783 99.506 3.68168 99.506 4.13553V8.17401H100.5V4.00861C100.5 3.38553 100.303 2.88552 99.9105 2.5086C99.5253 2.13167 99.0168 1.94321 98.385 1.94321C97.9536 1.94321 97.5684 2.03552 97.2294 2.22013C96.8904 2.40475 96.613 2.65091 96.3973 2.9586C96.2355 2.64321 95.9967 2.39706 95.6808 2.22013C95.3726 2.03552 95.0105 1.94321 94.5945 1.94321C94.2092 1.94321 93.8587 2.03167 93.5428 2.2086C93.2269 2.37783 92.965 2.60475 92.7569 2.88937V2.04706H91.7631V8.17401Z"
    fill="black" />
</svg>